<svg xmlns="http://www.w3.org/2000/svg" viewBox="0 0 1916.3726807 566.9291382"><defs><linearGradient id="g1" x1=".5400493" x2="1.5400493" y1="824.932342" y2="824.932342" gradientTransform="scale(-117.08212 117.08212)rotate(45 994.129 411.798)" gradientUnits="userSpaceOnUse"><stop offset="0" stop-color="#fab20b"/><stop offset="1" stop-color="#bac219"/></linearGradient><linearGradient id="g2" x1=".81067" x2="1.81067" y1="821.44626" y2="821.44626" gradientTransform="scale(100.3642 -100.3642)rotate(-45 -994.886 410.41)" gradientUnits="userSpaceOnUse"><stop offset="0" stop-color="#bac219"/><stop offset="1" stop-color="#73c82c"/></linearGradient><linearGradient id="g3" x1="1.1296007" x2="2.1296007" y1="821.2364864" y2="821.2364864" gradientTransform="scale(85.33357 -85.33357)rotate(-45 -991.43 403.65)" gradientUnits="userSpaceOnUse"><stop offset="0" stop-color="#80d6f7"/><stop offset="1" stop-color="#40bfc5"/></linearGradient><linearGradient id="g4" x1="1.0905316" x2="2.0905316" y1="825.3026196" y2="825.3026196" gradientTransform="scale(-86.25186 86.25186)rotate(45 988.616 405.562)" gradientUnits="userSpaceOnUse"><stop offset="0" stop-color="#40bfc5"/><stop offset="1" stop-color="#00a9a0"/></linearGradient><linearGradient id="g5" x1="-.9973041" x2=".0026959" y1="822.9668422" y2="822.9668422" gradientTransform="matrix(370.9296 0 0 -370.9296 472.212 305549.713)" gradientUnits="userSpaceOnUse"><stop offset="0" stop-color="#176fc1"/><stop offset="1" stop-color="#80d6f7"/></linearGradient><linearGradient id="g6" x1="-.9980536" x2=".0019644" y1="823.2625366" y2="823.2625366" gradientTransform="matrix(506.47973 0 0 -506.47973 544.43 417051.988)" gradientUnits="userSpaceOnUse"><stop offset="0" stop-color="#fab20b"/><stop offset=".9159354" stop-color="#f1511b"/><stop offset="1" stop-color="#f1511b"/></linearGradient><linearGradient id="g7" x1="-.9976476" x2=".0023524" y1="823.0930304" y2="823.0930304" gradientTransform="matrix(425.09112 0 0 -425.09112 479.718 350358.228)" gradientUnits="userSpaceOnUse"><stop offset="0" stop-color="#73c82c"/><stop offset="1" stop-color="#00a9a0"/></linearGradient></defs><!-- Symbol --><path d="M0 270.295h13.975c.054-46.803 16.344-89.37 45.244-119.325l-20.282-22.337C14.147 171.06.003 220.27.003 270.295" style="fill:url(#g1)"/><path d="M0 270.295c0 50.873 9.088 98.158 27.003 139.374l28.616-39.212c-25.379-24.015-41.641-56.517-41.641-99.941v-.221z" style="fill:url(#g2)"/><path d="M474.216 260.986c35.935.533 58.011 28.264 57.246 63.64h13.964c0-34.908-16.37-66.67-45.258-90.436z" style="fill:url(#g3)"/><path d="M531.462 324.626c-.689 29.138-16.265 53.578-50.783 71.743l36.468 50.195c17.773-32.853 28.279-73.13 28.279-121.937z" style="fill:url(#g4)"/><path d="M127.423 289.692c-23.31 0-41.199-25.61-41.199-50.47 0-2.574.193-5.083.443-7.527L73.794 229.5a91 91 0 0 0-1.547 16.693c0 83.426 62.158 136.667 140.646 136.667 149.202 0 193.47-121.913 260.283-121.913.34 0 .689.04 1.04.04l25.952-26.796c-32.244-26.521-80.05-43.149-138.073-43.149-118.114 0-181.055 98.651-234.672 98.651" style="fill:url(#g5)"/><path d="m38.937 128.633 20.282 22.337c26.186-27.093 62.759-43.786 107.039-43.786 86.224 0 146.097 65.214 223.024 65.214 92.268 0 143.311-44.947 156.144-132.784l-13.964-2.299c-3.9 23.244-19.074 51.222-46.261 51.222-25.637 0-52.835-22.53-92.424-44.254C353.123 21.753 307.687 0 250.948 0 159.707 0 82.726 53.773 38.937 128.636" style="fill:url(#g6)"/><path d="M27.003 409.669c41.162 94.685 128.948 157.26 260.478 157.26 86.939 0 183.135-34.412 229.666-120.365l-36.468-50.196c-42.84 22.556-114.956 35.442-224.282 35.442-66.762 0-151.217-14.47-200.778-61.353z" style="fill:url(#g7)"/><!-- GS에너지 text --><path d="M774.646 424.202c-86.366 0-134.095-56.761-134.095-140.749 0-84.416 51.655-141.61 135.694-141.61 33.491 0 61.484 7.88 83.22 20.126l-9.1 58.754c-20.528-13.003-44.58-23.208-72.598-23.208-46.936 0-69.752 34.66-69.752 85.507 0 51.265 23.636 87.174 70.543 87.174 15.018 0 25.68-2.755 36.692-8.696v-48.496h-47.325l-7.891-50.093H874v132.508c-28.41 18.567-61.912 28.783-99.355 28.783m228.742-1.973c-36.728 0-67.45-7.866-95.065-20.492l9.856-57.569c27.992 15.004 59.167 25.237 86.38 25.237 19.292 0 32.737-8.308 32.737-24.443 0-15.392-7.906-22.507-46.168-37.091-54.397-20.906-78.072-38.628-78.072-83.622 0-52.424 40.992-80.428 93.05-80.428 35.547 0 58.414 6.721 82.035 18.15l-10.244 56.762c-24.378-14.182-50.066-22.037-70.985-22.037-20.503 0-30.37 8.634-30.37 21.271 0 13.805 7.488 20.529 41.408 33.543 59.244 21.66 82.856 42.176 82.856 85.56 0 59.157-43.384 85.159-97.418 85.159" fill="#fff"/><path d="M1625.006 149.244v68.451h-81.544v26.195h81.544v173.293h29.109V149.244z" fill="#fff"/><path d="M1476.462 155.086h-29.112v177.648c0 7.866 6.67 14.561 14.55 14.561h133.977v-26.209h-119.415z" fill="#fff"/><path d="M1887.276 417.183h29.098V149.241h-29.098z" fill="#fff"/><path d="M1785.977 217.599v-36.312h53.215v-26.249h-135.737v26.249h52.42v36.312c0 48.637-21.724 91.516-67.45 110.562l15.342 21.986c28.383-12.716 52.384-35 67.178-65.098 14.717 30.098 38.77 52.384 67.113 65.098l15.301-21.986c-45.66-19.049-67.385-61.925-67.385-110.562" fill="#fff"/><path d="M1368.334 417.626h28.29V148.825h-28.29z" fill="#fff"/><path d="M1318.64 226.1h-20.372c-4.876-43.62-34.453-77.278-70.206-77.278-39.135 0-70.974 40.317-70.974 89.969 0 49.69 31.839 90.03 70.974 90.03 35.507 0 64.913-33.216 70.1-76.433h20.478V417.62h28.355V148.822h-28.355zm-90.578 77.28c-21.322 0-41.176-28.045-41.176-64.59 0-36.51 19.854-64.55 41.176-64.55 21.36 0 41.216 28.043 41.216 64.55 0 36.545-19.854 64.59-41.216 64.59" fill="#fff"/></svg>
