<svg xmlns="http://www.w3.org/2000/svg" viewBox="0 0 545 567"><defs><linearGradient id="g1" x1=".5400493" x2="1.5400493" y1="824.932342" y2="824.932342" gradientTransform="scale(-117.08212 117.08212)rotate(45 994.129 411.798)" gradientUnits="userSpaceOnUse"><stop offset="0" stop-color="#fab20b"/><stop offset="1" stop-color="#bac219"/></linearGradient><linearGradient id="g2" x1=".81067" x2="1.81067" y1="821.44626" y2="821.44626" gradientTransform="scale(100.3642 -100.3642)rotate(-45 -994.886 410.41)" gradientUnits="userSpaceOnUse"><stop offset="0" stop-color="#bac219"/><stop offset="1" stop-color="#73c82c"/></linearGradient><linearGradient id="g3" x1="1.1296007" x2="2.1296007" y1="821.2364864" y2="821.2364864" gradientTransform="scale(85.33357 -85.33357)rotate(-45 -991.43 403.65)" gradientUnits="userSpaceOnUse"><stop offset="0" stop-color="#80d6f7"/><stop offset="1" stop-color="#40bfc5"/></linearGradient><linearGradient id="g4" x1="1.0905316" x2="2.0905316" y1="825.3026196" y2="825.3026196" gradientTransform="scale(-86.25186 86.25186)rotate(45 988.616 405.562)" gradientUnits="userSpaceOnUse"><stop offset="0" stop-color="#40bfc5"/><stop offset="1" stop-color="#00a9a0"/></linearGradient><linearGradient id="g5" x1="-.9973041" x2=".0026959" y1="822.9668422" y2="822.9668422" gradientTransform="matrix(370.9296 0 0 -370.9296 472.212 305549.713)" gradientUnits="userSpaceOnUse"><stop offset="0" stop-color="#176fc1"/><stop offset="1" stop-color="#80d6f7"/></linearGradient><linearGradient id="g6" x1="-.9980536" x2=".0019644" y1="823.2625366" y2="823.2625366" gradientTransform="matrix(506.47973 0 0 -506.47973 544.43 417051.988)" gradientUnits="userSpaceOnUse"><stop offset="0" stop-color="#fab20b"/><stop offset=".9159354" stop-color="#f1511b"/><stop offset="1" stop-color="#f1511b"/></linearGradient><linearGradient id="g7" x1="-.9976476" x2=".0023524" y1="823.0930304" y2="823.0930304" gradientTransform="matrix(425.09112 0 0 -425.09112 479.718 350358.228)" gradientUnits="userSpaceOnUse"><stop offset="0" stop-color="#73c82c"/><stop offset="1" stop-color="#00a9a0"/></linearGradient></defs><path d="M0 270.295h13.975c.054-46.803 16.344-89.37 45.244-119.325l-20.282-22.337C14.147 171.06.003 220.27.003 270.295" style="fill:url(#g1)"/><path d="M0 270.295c0 50.873 9.088 98.158 27.003 139.374l28.616-39.212c-25.379-24.015-41.641-56.517-41.641-99.941v-.221z" style="fill:url(#g2)"/><path d="M474.216 260.986c35.935.533 58.011 28.264 57.246 63.64h13.964c0-34.908-16.37-66.67-45.258-90.436z" style="fill:url(#g3)"/><path d="M531.462 324.626c-.689 29.138-16.265 53.578-50.783 71.743l36.468 50.195c17.773-32.853 28.279-73.13 28.279-121.937z" style="fill:url(#g4)"/><path d="M127.423 289.692c-23.31 0-41.199-25.61-41.199-50.47 0-2.574.193-5.083.443-7.527L73.794 229.5a91 91 0 0 0-1.547 16.693c0 83.426 62.158 136.667 140.646 136.667 149.202 0 193.47-121.913 260.283-121.913.34 0 .689.04 1.04.04l25.952-26.796c-32.244-26.521-80.05-43.149-138.073-43.149-118.114 0-181.055 98.651-234.672 98.651" style="fill:url(#g5)"/><path d="m38.937 128.633 20.282 22.337c26.186-27.093 62.759-43.786 107.039-43.786 86.224 0 146.097 65.214 223.024 65.214 92.268 0 143.311-44.947 156.144-132.784l-13.964-2.299c-3.9 23.244-19.074 51.222-46.261 51.222-25.637 0-52.835-22.53-92.424-44.254C353.123 21.753 307.687 0 250.948 0 159.707 0 82.726 53.773 38.937 128.636" style="fill:url(#g6)"/><path d="M27.003 409.669c41.162 94.685 128.948 157.26 260.478 157.26 86.939 0 183.135-34.412 229.666-120.365l-36.468-50.196c-42.84 22.556-114.956 35.442-224.282 35.442-66.762 0-151.217-14.47-200.778-61.353z" style="fill:url(#g7)"/></svg>
